<?xml version="1.0" encoding="UTF-8"?>
<svg version="1.1" viewBox="0 0 1600 1600" width="100" height="100" xmlns="http://www.w3.org/2000/svg">
<path transform="translate(442)" d="m0 0h563l3 9 4 2 10 9 92 92 8 7 7 7 8 7 15 15 7 11 1 3v321h24l30 2 16 4 10 6 9 8 10 13 16 25 12 21 9 15 4 3 11 2 123 1 21 2 13 4 10 6 8 8 9 15 3 8 1 9 1 39v822l-1 22-2 13-4 9-8 11-8 8-11 7-12 3-15 1-58 1h-1160l-66-1-20-2-9-3-8-7-9-11-5-10-3-11-2-19-1-31v-825l1-17 2-11 7-14 9-10 10-8 13-5 15-2 32-1 109-1 5-2 7-10 14-26 11-19 8-11 9-11 7-7 10-6 10-4 8-1 51-2 1-309v-78l1-63 1-20 2-12zm30 31-1 1-1 451 1 1h145l511-1v-301l-1-1h-116l-23-1-5-1-2-7-1-13-1-121-1-5-460-2zm538 26v92l1 1h91v-3l-15-16-44-44-8-7-16-16-8-7zm-608 460-14 1-9 4-10 9-7 10-16 26-9 14v2h923l-1-4-16-27-12-20-6-8-4-3-7-2-10-1-41-1zm4 98-250 1-15 1-7 3-2 4-1 6-1 25v343l1 15 3 8 5 3 15 2 72 1h1086l1-1v-392l-1-17-1-1-244-1zm941 1-2 1v410h46l46-1 21-2 6-2 1-2 1-14 1-30v-336l-2-13-3-6-3-3-13-2zm-1218 440v272h32l90-1 2-1v-267l-1-1-37-1zm1333-1-14 1-37 1-65 1-1 1v266l1 1 91 2 30 1 1-189 1-85zm-1176 3-1 1v55h372l337 1h194l125-1v-56h-315l-103 1h-295l-121-1zm-1 87-1 1v392l1 2 8 1h1021v-75l-1-321h-74l-41 1-1 1-1 242-5 2-7 1-20 1h-87l-7-1-2-14-1-135v-91l-2-5-6-1-23-1h-18l-7 3-3 5-1 109-1 38-2 37-3 31-5 27-11 48-8 28-5 16-4 13-3 4-9 2-20 1h-76l-14-1-5-3-1-1v-13l4-16 5-18 13-49 7-33 3-21 2-36 1-62 1-108-1-1h-102l-5 2-1 2-1 207-4 2-19 2h-101l-3-1-1-5-1-24-1-185h-65l-18 1-2 3v275l-1 7-5 2-23 1h-98l-2-20-1-128v-139l-1-1-91-1zm633 3-8 3-2 6-1 106-1 37-2 33-3 31-5 29-8 36-11 40-1 6 3 1 47 1 14-2 4-5 7-32 9-36 6-30 4-29 2-20 1-24 1-46v-97l-2-5-10-2-16-1zm-243 1-7 2-1 1v178l1 1h60l6-2 1-2-1-169-2-6-1-1-23-2zm432 0-8 2-1 5v206l1 1h56l9-1 1-1v-205l-1-5-6-1-18-1zm-651 1-3 2-1 249 1 3 2 1h64l1-5v-239l-1-8-3-2-9-1zm890 207-1 2v178l1 2 7 1 51 1h36l17-3 5-4 2-4 1-7 1-23 1-91-1-40-3-7-9-2-13-1-63-2zm-1102 0-84 1-20 1-6 1-2 10-1 12v139l3 12 5 5 15 2 43 1h55l1-110v-73l-1-1z" fill="#1A1A1A"/>
<path transform="translate(278,677)" d="m0 0h261l35 1 14 1 12 4 9 6 7 7 4 8 2 16 1 31v142l-1 25-2 16-4 10-6 8-12 9-10 3-31 1h-309l-24-1-14-2-6-3-8-8-6-12-3-11-2-21-1-39v-121l1-25 3-16 7-14 5-5 7-5 10-3 20-1zm-49 32-8 1-2 2-1 5-1 25v73l6 1 281-1h84l2-1v-101l-2-2-6-1-41-1zm-9 136-2 1-1 23v40l1 19 1 4 4 1 30 1 287-1 45-1 3-1 1-7v-76l-1-1-29-1z" fill="#1A1A1A"/>
<path transform="translate(774,677)" d="m0 0h67l26 1 15 2 10 4 6 4 8 8 5 8 4 15 1 10-2 11-7 16-4 6-8 8-10 5-9 2-10 1-26 1h-80l-16-2-10-3-9-7-7-9-8-16-2-11 1-14 5-13 4-6 8-9 13-8 9-3zm-18 31-9 3-4 7-1 4v11l4 10 4 3 5 1 17 1 93-1 9-1 5-4 2-6 1-18-2-6-9-3-10-1z" fill="#1A1A1A"/>
<path transform="translate(1017,677)" d="m0 0h34l15 2 14 5 10 9 7 8 4 8 2 8v22l-5 12-6 8-8 8-12 7-13 4-14 2h-26l-16-4-8-5-5-4-10-13-5-10-2-9v-15l5-16 9-11 10-8 15-7zm15 28-13 3-9 5-4 5-2 10 2 8 7 8 8 4 11 2h16l10-3 6-4 4-5 2-4v-11l-3-6-7-6-12-5-6-1z" fill="#1A1A1A"/>
<path transform="translate(1182,677)" d="m0 0h38l14 2 13 5 9 7 8 11 4 13 1 5v16l-3 13-7 11-9 8-12 6-14 4-17 2h-16l-16-2-10-4-12-11-7-11-4-9-2-8v-17l4-12 6-10 10-9 14-8zm17 28-16 4-9 6-3 4-1 9 3 8 8 9 9 3 5 1h24l10-4 6-7 2-9-1-9-4-6-6-4-12-4-5-1z" fill="#1A1A1A"/>
<path transform="translate(354,743)" d="m0 0h32l86 1 3 3 2 8-1 16-4 4-90 1h-30l-2-5v-19l2-8z" fill="#1A1A1A"/>
<path transform="translate(101,625)" d="m0 0h1v534l2 153 1 127 1 99-2-1-3-11-2-19-1-31v-825l1-17z" fill="#030303"/>
<path transform="translate(1496,625)" d="m0 0 2 1 1 9 1 39v822l-1 22-2 13-2 1 1-212z" fill="#050505"/>
<path transform="translate(259,744)" d="m0 0 51 1 3 4 1 7v11l-2 6-11 2h-49l-2-4v-21l2-5z" fill="#1B1B1B"/>
<path transform="translate(1e3 696)" d="m0 0 21 1 10 2 32 3 6 5 5 16 4 16v8l-6 5-7 2-13 1h-26l-17-3-10-5-5-5-4-6-1-4 1-1v-13l3-5 3-4 10-5v-2l-7-3zm32 9-13 3-9 5-4 5-2 10 2 8 7 8 8 4 11 2h16l10-3 6-4 4-5 2-4v-11l-3-6-7-6-12-5-6-1z" fill="#030303"/>
<path transform="translate(1095,1148)" d="m0 0h63v2h-51l-8 1v211l62 1v12h-11l-58-3v-68l1-46 1-109z" fill="#030303"/>
<path transform="translate(661,1149)" d="m0 0h10l-3 3v178l60 1v10l-59-1-6-1-1-2z" fill="#030303"/>
<path transform="translate(354,743)" d="m0 0h32l26 1 12 1-1 4-3 1-1 3-3 1-2-3-4 1-4 8h-2l-1 2-5-3-6 1-2 5-4 1-1-5-4 2-8-2 2 4-1 5-3 5-5 1h-14l-2-5v-19l2-8z" fill="#010101"/>
<path transform="translate(1313,622)" d="m0 0 2 1 1 81v166l-1 158h-166v-1l163-1z" fill="#090909"/>
<path transform="translate(1211,697)" d="m0 0 19 1 8 3 5 6 3 10 2 16v15l-3 2h-28l2-2 10-4 5-6 2-9-1-9-4-6-10-5-12-3h-10l-16 4-8 5h-2v-3l5-5 9-6 5-2z" fill="#030303"/>
<path transform="translate(282,1147)" d="m0 0h2l1 119v271l-2 3-1-27z" fill="#090909"/>
<path transform="translate(494,1149)" d="m0 0h27l2 99 2 137v20h-5l-1-5v-239l-1-8-2-1-22-2z" fill="#050505"/>
<path transform="translate(1193,1147)" d="m0 0 4 1v241l-4 1z" fill="#070707"/>
<path transform="translate(702,1540)" d="m0 0h282l5 1v1l-74 1h-119l-384-1v-1z" fill="#0A0A0A"/>
<path transform="translate(753,1240)" d="m0 0 4 4 2 15-1 50-2 4-4-1-1-2h-2l-2 4-2-1-1-1-1-20v-21l1-13 3-7 5-10z" fill="#010101"/>
<path transform="translate(617,700)" d="m0 0 2 1 2 7 1 12 1 31v142l-1 25-2 13h-1l-2-225z" fill="#050505"/>
<path transform="translate(1313,1155)" d="m0 0h1l1 44 1 205 1 78v59h-2l-2-75z" fill="#0A0A0A"/>
<path transform="translate(1314,864)" d="m0 0h2l-1 164h-166v-1l163-1 1-161z" fill="#010101"/>
<path transform="translate(845,1540)" d="m0 0h139l5 1v1l-74 1h-119v-2z" fill="#060606"/>
<path transform="translate(907,1149)" d="m0 0h5l-2 3-1 5-1 106-1 37-1 10h-1v-98l1-55z" fill="#0A0A0A"/>
<path transform="translate(1314,1404)" d="m0 0h2l1 78v59h-2l-1-29z" fill="#010101"/>
<path transform="translate(879,710)" d="m0 0h9l2 1 1 14-1 17-11 1 2-17v-8z" fill="#020202"/>
<path transform="translate(1169,721)" d="m0 0h1l2 11 6 9 5 4 14 4v1l-19 1-9-2-4-4-1-10 2-8z" fill="#030303"/>
<path transform="translate(138,1354)" d="m0 0 57 1 40 1v1l-54 1-21 1h-23z" fill="#020202"/>
<path transform="translate(1099,708)" d="m0 0 2 1 2 8v22l-5 12-1 2h-2l2-17 1-21z" fill="#030303"/>
<path transform="translate(743,712)" d="m0 0h2l-1 6-1 4v11l2 9-5-1-3-5v-10l3-13z" fill="#030303"/>
<path transform="translate(354,743)" d="m0 0h24v1h-23l-1 25-1 7-2-1-1-4v-19l2-8z" fill="#2C2C2C"/>
<path transform="translate(907,1149)" d="m0 0h5l-2 3-1 5-2 55h-1v-55z" fill="#020202"/>
<path transform="translate(1461,1534)" d="m0 0h1l1 7-2 1h-14l-2-2 12-3z" fill="#030303"/>
<path transform="translate(494,1149)" d="m0 0h27v7l-1 5h-1l-1-8-2-1-22-2z" fill="#070707"/>
<path transform="translate(698,1148)" d="m0 0h31v3l-21-1-10-1z" fill="#060606"/>
<path transform="translate(1431,1358)" d="m0 0h25l5 1v2l-20-1-10-1z" fill="#0B0B0B"/>
<path transform="translate(308,571)" d="m0 0h1v6h11l-2 2h-15l4-7z" fill="#030303"/>
<path transform="translate(1253,568)" d="m0 0 5 5 4 5-4 1-5-8z" fill="#050505"/>
<path transform="translate(369,526)" d="m0 0h4l-2 4-5 6-1-2z" fill="#050505"/>
</svg>
